<mxfile host="Electron" modified="2023-05-26T15:00:31.221Z" agent="Mozilla/5.0 (Windows NT 10.0; Win64; x64) AppleWebKit/537.36 (KHTML, like Gecko) draw.io/21.2.8 Chrome/112.0.5615.165 Electron/24.2.0 Safari/537.36" etag="TDmG3292EZ2I8mfVmuGG" version="21.2.8" type="device">
  <diagram name="Page-1" id="PjV5T4BKNxEZxDZ0Ih3n">
    <mxGraphModel dx="724" dy="461" grid="1" gridSize="10" guides="1" tooltips="1" connect="1" arrows="1" fold="1" page="1" pageScale="1" pageWidth="827" pageHeight="1169" math="0" shadow="0">
      <root>
        <mxCell id="0" />
        <mxCell id="1" parent="0" />
        <mxCell id="Ck23_u48oW8TQgdkU4oY-8" style="edgeStyle=orthogonalEdgeStyle;rounded=0;orthogonalLoop=1;jettySize=auto;html=1;entryX=0.5;entryY=0;entryDx=0;entryDy=0;" edge="1" parent="1" source="Ck23_u48oW8TQgdkU4oY-1" target="Ck23_u48oW8TQgdkU4oY-2">
          <mxGeometry relative="1" as="geometry" />
        </mxCell>
        <mxCell id="Ck23_u48oW8TQgdkU4oY-10" style="rounded=0;orthogonalLoop=1;jettySize=auto;html=1;exitX=1;exitY=1;exitDx=0;exitDy=0;entryX=0.5;entryY=0;entryDx=0;entryDy=0;" edge="1" parent="1" source="Ck23_u48oW8TQgdkU4oY-1" target="Ck23_u48oW8TQgdkU4oY-4">
          <mxGeometry relative="1" as="geometry" />
        </mxCell>
        <mxCell id="Ck23_u48oW8TQgdkU4oY-12" style="rounded=0;orthogonalLoop=1;jettySize=auto;html=1;exitX=0;exitY=1;exitDx=0;exitDy=0;entryX=0.5;entryY=0;entryDx=0;entryDy=0;" edge="1" parent="1" source="Ck23_u48oW8TQgdkU4oY-1" target="Ck23_u48oW8TQgdkU4oY-3">
          <mxGeometry relative="1" as="geometry" />
        </mxCell>
        <mxCell id="Ck23_u48oW8TQgdkU4oY-1" value="&lt;font style=&quot;font-size: 14px;&quot;&gt;高级语言代码&lt;/font&gt;" style="rounded=0;whiteSpace=wrap;html=1;fillColor=none;" vertex="1" parent="1">
          <mxGeometry x="320" y="40" width="120" height="60" as="geometry" />
        </mxCell>
        <mxCell id="Ck23_u48oW8TQgdkU4oY-9" style="edgeStyle=orthogonalEdgeStyle;rounded=0;orthogonalLoop=1;jettySize=auto;html=1;entryX=0.5;entryY=0;entryDx=0;entryDy=0;" edge="1" parent="1" source="Ck23_u48oW8TQgdkU4oY-2" target="Ck23_u48oW8TQgdkU4oY-6">
          <mxGeometry relative="1" as="geometry" />
        </mxCell>
        <mxCell id="Ck23_u48oW8TQgdkU4oY-2" value="PowerPC 硬件&lt;br&gt;上的编译器" style="rounded=1;whiteSpace=wrap;html=1;fillColor=none;" vertex="1" parent="1">
          <mxGeometry x="320" y="160" width="120" height="60" as="geometry" />
        </mxCell>
        <mxCell id="Ck23_u48oW8TQgdkU4oY-13" style="edgeStyle=orthogonalEdgeStyle;rounded=0;orthogonalLoop=1;jettySize=auto;html=1;exitX=0.5;exitY=1;exitDx=0;exitDy=0;entryX=0.5;entryY=0;entryDx=0;entryDy=0;" edge="1" parent="1" source="Ck23_u48oW8TQgdkU4oY-3" target="Ck23_u48oW8TQgdkU4oY-5">
          <mxGeometry relative="1" as="geometry" />
        </mxCell>
        <mxCell id="Ck23_u48oW8TQgdkU4oY-3" value="x86 硬件&lt;br&gt;上的编译器" style="rounded=1;whiteSpace=wrap;html=1;fillColor=none;" vertex="1" parent="1">
          <mxGeometry x="120" y="160" width="120" height="60" as="geometry" />
        </mxCell>
        <mxCell id="Ck23_u48oW8TQgdkU4oY-11" style="edgeStyle=orthogonalEdgeStyle;rounded=0;orthogonalLoop=1;jettySize=auto;html=1;exitX=0.5;exitY=1;exitDx=0;exitDy=0;entryX=0.5;entryY=0;entryDx=0;entryDy=0;" edge="1" parent="1" source="Ck23_u48oW8TQgdkU4oY-4" target="Ck23_u48oW8TQgdkU4oY-7">
          <mxGeometry relative="1" as="geometry" />
        </mxCell>
        <mxCell id="Ck23_u48oW8TQgdkU4oY-4" value="MIPS 硬件&lt;br&gt;上的编译器" style="rounded=1;whiteSpace=wrap;html=1;fillColor=none;" vertex="1" parent="1">
          <mxGeometry x="520" y="160" width="120" height="60" as="geometry" />
        </mxCell>
        <mxCell id="Ck23_u48oW8TQgdkU4oY-5" value="x86&lt;br&gt;可执行文件" style="rounded=1;whiteSpace=wrap;html=1;fillColor=none;" vertex="1" parent="1">
          <mxGeometry x="120" y="280" width="120" height="60" as="geometry" />
        </mxCell>
        <mxCell id="Ck23_u48oW8TQgdkU4oY-6" value="PowerPC&lt;br&gt;可执行文件" style="rounded=1;whiteSpace=wrap;html=1;fillColor=none;" vertex="1" parent="1">
          <mxGeometry x="320" y="280" width="120" height="60" as="geometry" />
        </mxCell>
        <mxCell id="Ck23_u48oW8TQgdkU4oY-7" value="MIPS&lt;br&gt;可执行文件" style="rounded=1;whiteSpace=wrap;html=1;fillColor=none;" vertex="1" parent="1">
          <mxGeometry x="520" y="280" width="120" height="60" as="geometry" />
        </mxCell>
      </root>
    </mxGraphModel>
  </diagram>
</mxfile>
